<svg width="221" height="43" viewBox="0 0 221 43" fill="none" xmlns="http://www.w3.org/2000/svg">
<path d="M38.7735 12.8265C37.4932 12.2079 35.9798 11.8952 34.23 11.8952C32.326 11.8952 30.6353 12.2987 29.1548 13.1056C27.6742 13.9125 26.5121 15.0153 25.6652 16.4139C24.8182 17.8126 24.398 19.3961 24.398 21.168C24.398 22.6641 24.7492 23.9753 25.4518 25.0949C26.1543 26.2179 27.149 27.0887 28.4359 27.7073C29.7227 28.3259 31.2328 28.6386 32.9629 28.6386C34.8866 28.6386 36.5806 28.2352 38.0513 27.4283C39.522 26.6213 40.6808 25.5186 41.5278 24.1199C42.3747 22.7213 42.7949 21.1377 42.7949 19.3659C42.7949 17.8495 42.4437 16.535 41.7412 15.4221C41.0386 14.3092 40.0505 13.4418 38.7702 12.8232L38.7735 12.8265ZM35.8321 21.6857C35.5924 22.2472 35.2609 22.6809 34.8374 22.9835C34.4139 23.2895 33.9149 23.4408 33.3371 23.4408C32.605 23.4408 32.0338 23.1987 31.6202 22.7179C31.2066 22.2371 30.9997 21.6118 30.9997 20.8418C30.9997 20.0719 31.1179 19.4096 31.3609 18.8481C31.6005 18.2866 31.9386 17.8529 32.3687 17.5503C32.802 17.2444 33.2944 17.0931 33.8525 17.0931C34.601 17.0931 35.1788 17.3553 35.5826 17.8764C35.9864 18.3976 36.1866 19.0028 36.1866 19.692C36.1866 20.4586 36.0651 21.1243 35.8255 21.6857H35.8321Z" fill="white"/>
<path d="M51.8851 17.6108C52.348 17.3049 52.8667 17.1536 53.4412 17.1536C54.0156 17.1536 54.5048 17.3116 54.9545 17.6276C55.4076 17.9437 55.7654 18.4749 56.0346 19.2213L61.5727 16.6224C61.0146 15.1666 60.0429 14.0134 58.6609 13.1661C57.2755 12.3188 55.6439 11.8952 53.7596 11.8952C51.8752 11.8952 50.096 12.2987 48.599 13.1056C47.0987 13.9125 45.9268 15.0153 45.0798 16.4139C44.2328 17.8126 43.8126 19.3961 43.8126 21.168C43.8126 22.6641 44.1672 23.9753 44.8795 25.0949C45.5919 26.2179 46.5899 27.0887 47.8801 27.7073C49.1669 28.3259 50.677 28.6386 52.4071 28.6386C54.2717 28.6386 55.9098 28.2453 57.3247 27.4585C58.7364 26.6718 59.8295 25.569 60.5977 24.1502L55.8409 21.3159C55.4765 22.0657 55.053 22.5969 54.5737 22.9096C54.0944 23.2256 53.5364 23.3836 52.8995 23.3836C52.0919 23.3836 51.478 23.1382 51.0545 22.6439C50.6311 22.1531 50.421 21.521 50.421 20.7544C50.421 20.0248 50.549 19.3961 50.8116 18.8649C51.071 18.3337 51.4321 17.9168 51.8917 17.6108H51.8851Z" fill="white"/>
<path d="M73.2694 8.50283H66.7333L65.8502 13.035H63.6672L62.7119 17.9202H64.8949L64.0972 22.0085C63.828 23.4105 63.8838 24.6108 64.2712 25.606C64.6553 26.6045 65.3217 27.3577 66.2672 27.8721C67.2126 28.3865 68.3583 28.642 69.7076 28.642C70.479 28.642 71.2341 28.568 71.976 28.4201C72.7179 28.2721 73.3876 28.0301 73.9851 27.6939L73.2333 23.192C72.9838 23.3096 72.7475 23.4038 72.5242 23.4744C72.301 23.545 72.0581 23.5786 71.7856 23.5786C71.3424 23.5786 71.0141 23.4509 70.8007 23.1953C70.5874 22.9398 70.5316 22.533 70.6268 21.9816L71.4179 17.9235H74.6449L75.6002 13.0383H72.3732L73.2596 8.50619L73.2694 8.50283Z" fill="white"/>
<path d="M89.5096 12.8265C88.2293 12.2079 86.7159 11.8952 84.9662 11.8952C83.0621 11.8952 81.3715 12.2987 79.8909 13.1056C78.4103 13.9125 77.2482 15.0153 76.4013 16.4139C75.5543 17.8126 75.1341 19.3961 75.1341 21.168C75.1341 22.6641 75.4853 23.9753 76.1879 25.0949C76.8904 26.2179 77.8851 27.0887 79.172 27.7073C80.4588 28.3259 81.9689 28.6386 83.699 28.6386C85.6227 28.6386 87.3167 28.2352 88.7874 27.4283C90.2581 26.6213 91.4169 25.5186 92.2639 24.1199C93.1108 22.7213 93.5311 21.1377 93.5311 19.3659C93.5311 17.8495 93.1798 16.535 92.4773 15.4221C91.7747 14.3092 90.7866 13.4418 89.5063 12.8232L89.5096 12.8265ZM86.5682 21.6857C86.3285 22.2472 85.997 22.6809 85.5735 22.9835C85.15 23.2895 84.651 23.4408 84.0732 23.4408C83.3412 23.4408 82.7699 23.1987 82.3563 22.7179C81.9427 22.2371 81.7359 21.6118 81.7359 20.8418C81.7359 20.0719 81.854 19.4096 82.097 18.8481C82.3366 18.2866 82.6747 17.8529 83.1048 17.5503C83.5381 17.2444 84.0305 17.0931 84.5886 17.0931C85.3371 17.0931 85.9149 17.3553 86.3187 17.8764C86.7225 18.3976 86.9227 19.0028 86.9227 19.692C86.9227 20.4586 86.8013 21.1243 86.5616 21.6857H86.5682Z" fill="white"/>
<path d="M107.628 11.6733C107.24 12.302 106.902 12.9711 106.613 13.6704C106.101 14.9043 105.766 16.2357 105.605 17.6445C105.474 17.6377 105.343 17.6344 105.208 17.6344C104.098 17.6344 103.202 17.8899 102.519 18.3942C101.833 18.9019 101.374 19.7458 101.137 20.9225L99.6207 28.6218H92.904L96.1442 11.9759H102.47L102.145 13.6435C102.611 13.1762 103.137 12.803 103.734 12.5206C104.873 11.9793 106.17 11.6968 107.624 11.67L107.628 11.6733Z" fill="white"/>
<path d="M121.845 19.2986C121.619 20.0383 121.281 20.6973 120.831 21.2756C120.381 21.8538 119.84 22.3044 119.209 22.6339C118.579 22.96 117.85 23.1247 117.023 23.1247C116.196 23.1247 115.523 22.96 114.951 22.6339C114.377 22.3077 113.937 21.8438 113.625 21.2487C113.317 20.6536 113.159 19.9677 113.159 19.1978C113.159 18.3707 113.271 17.5873 113.497 16.8443C113.724 16.1046 114.062 15.4456 114.512 14.8673C114.961 14.2891 115.506 13.8385 116.146 13.509C116.787 13.1829 117.509 13.0182 118.316 13.0182C119.124 13.0182 119.817 13.1829 120.388 13.509C120.962 13.8352 121.402 14.2924 121.714 14.8808C122.023 15.4692 122.18 16.155 122.18 16.9451C122.18 17.7722 122.069 18.559 121.842 19.2986H121.845ZM127.669 11.8515C126.848 10.4932 125.693 9.42741 124.196 8.66085C122.702 7.89092 120.933 7.50427 118.884 7.50427C117.082 7.50427 115.414 7.80014 113.894 8.38515C112.374 8.97016 111.055 9.80397 109.948 10.8799C108.839 11.9591 107.979 13.2333 107.371 14.706C106.758 16.1819 106.456 17.8092 106.456 19.5979C106.456 21.3865 106.863 22.9331 107.68 24.2914C108.497 25.6497 109.656 26.7121 111.15 27.4787C112.644 28.2486 114.416 28.6353 116.465 28.6353C118.267 28.6353 119.932 28.3394 121.455 27.7544C122.975 27.1694 124.291 26.3389 125.397 25.2597C126.218 24.4662 126.901 23.5618 127.446 22.5498L128.848 15.5431V15.5364C128.72 14.1714 128.329 12.9408 127.669 11.8515Z" fill="#FCC007"/>
<path d="M156.332 12.9476L155.846 15.4086H164.535L163.541 20.5124H154.848L154.306 23.2727H164.187L163.14 28.5848H146.483L146.49 28.5579C146.513 28.4571 146.614 27.9998 147.015 25.9422C147.488 23.545 148.374 18.9826 150.029 10.2747C150.081 9.99225 150.14 9.70983 150.193 9.42069L150.367 8.51291L150.459 8.03885C150.488 7.87747 150.521 7.71609 150.554 7.55134H167.276L166.213 12.9442H156.335L156.332 12.9476Z" fill="#FCC007"/>
<path d="M140.193 27.63L140.042 28.5882H133.017L134.898 18.8447L140.193 27.63Z" fill="#FCC007"/>
<path d="M145.239 0L143.775 7.55471H143.771L141.936 16.9418C141.936 16.9418 141.923 16.9317 141.263 15.8659C140.6 14.8001 139.294 12.6752 136.7 8.44567L136.894 7.55471H133.371L134.422 2.16185L145.236 0.00336213L145.239 0Z" fill="#FCC007"/>
<path d="M18.9813 8.67093C17.4154 7.95144 15.5475 7.58833 13.3775 7.58833H4.10682L0 28.6218H11.0008C12.8785 28.6218 14.5987 28.3428 16.1646 27.7813C17.7306 27.2198 19.0831 26.4095 20.2288 25.3471C21.3745 24.2847 22.2641 23.0138 22.8977 21.5311C23.5346 20.0484 23.8497 18.3774 23.8497 16.5148C23.8497 14.6522 23.4295 13.0854 22.5891 11.754C21.7487 10.4226 20.5439 9.39715 18.9813 8.67429V8.67093ZM16.2237 20.0417C15.7937 20.973 15.1634 21.7126 14.3328 22.264C13.5023 22.8154 12.4715 23.0911 11.2371 23.0911H8.0101L9.94697 13.1157H12.5864C13.5252 13.1157 14.3131 13.267 14.9467 13.5662C15.5836 13.8654 16.0629 14.2991 16.3846 14.8573C16.7063 15.4187 16.8672 16.108 16.8672 16.9317C16.8672 18.0748 16.6505 19.1103 16.2205 20.0417H16.2237Z" fill="white"/>
<path d="M164.713 25.9187C164.713 24.0359 166.091 22.802 167.821 22.802C169.443 22.802 170.513 23.8778 170.513 25.4715C170.513 27.3543 169.112 28.5882 167.428 28.5882C165.829 28.5882 164.713 27.4686 164.713 25.9187Z" fill="white"/>
<path d="M171.705 22.9129C171.705 18.875 174.837 15.8726 179.259 15.8726C182.105 15.8726 184.337 17.241 185.194 19.46L180.989 21.4336C180.572 20.2905 179.85 19.8635 179.019 19.8635C177.683 19.8635 176.721 20.9629 176.721 22.6002C176.721 23.7669 177.378 24.5973 178.606 24.5973C179.567 24.5973 180.27 24.1704 180.838 23.0272L184.452 25.179C183.27 27.3308 181.058 28.5882 178.235 28.5882C174.292 28.5882 171.708 26.3457 171.708 22.9129H171.705Z" fill="white"/>
<path d="M185.158 22.9129C185.158 18.875 188.267 15.8726 192.626 15.8726C196.589 15.8726 199.13 18.1152 199.13 21.5479C199.13 25.5858 196.021 28.5882 191.661 28.5882C187.699 28.5882 185.158 26.3457 185.158 22.9129ZM194.114 21.79C194.114 20.6468 193.457 19.8601 192.341 19.8601C191.047 19.8601 190.174 20.9595 190.174 22.6641C190.174 23.8072 190.831 24.594 191.947 24.594C193.24 24.594 194.114 23.4946 194.114 21.79Z" fill="white"/>
<path d="M221 20.0921C221 20.5729 220.954 21.1007 220.842 21.6521L219.496 28.5848H214.431L215.665 22.3178C215.731 22.0186 215.754 21.7664 215.754 21.5378C215.754 20.5964 215.304 20.1593 214.654 20.1593C213.735 20.1593 212.996 20.7578 212.681 22.3649L211.47 28.5882H206.405L207.639 22.3212C207.704 22.0219 207.727 21.7698 207.727 21.5412C207.727 20.5998 207.278 20.1627 206.628 20.1627C205.686 20.1627 204.97 20.7813 204.632 22.459L203.443 28.5882H198.378L200.82 16.0306H205.594L205.347 17.2477C206.378 16.2593 207.613 15.802 208.844 15.802C210.324 15.802 211.713 16.4442 212.451 17.7991C213.505 16.535 215.006 15.802 216.755 15.802C219.155 15.802 220.993 17.2242 220.993 20.0955L221 20.0921Z" fill="white"/>
<path d="M1.62828 42.7882C1.02424 42.6436 0.528533 42.4453 0.141159 42.1998L0.974997 40.2666C1.33939 40.4851 1.74975 40.6566 2.20278 40.7877C2.65581 40.9188 3.09242 40.9827 3.50934 40.9827C3.86717 40.9827 4.12323 40.9457 4.27752 40.8751C4.43181 40.8045 4.50732 40.6969 4.50732 40.5557C4.50732 40.391 4.40555 40.2666 4.2053 40.1859C4.00505 40.1018 3.67348 40.0144 3.2106 39.9169C2.61641 39.7892 2.12399 39.6513 1.73005 39.5067C1.33611 39.3622 0.991412 39.1201 0.69924 38.7873C0.407068 38.4544 0.259341 38.0039 0.259341 37.4323C0.259341 36.9381 0.393937 36.4876 0.666412 36.0841C0.935604 35.6806 1.34267 35.3612 1.87778 35.1292C2.41616 34.8973 3.06944 34.7796 3.83762 34.7796C4.36288 34.7796 4.88156 34.8368 5.3904 34.9544C5.89924 35.0721 6.3457 35.2402 6.73636 35.4655L5.95833 37.3886C5.20328 36.9986 4.49091 36.8036 3.81793 36.8036C3.14495 36.8036 2.81995 36.9683 2.81995 37.2978C2.81995 37.4558 2.91843 37.5735 3.1154 37.6509C3.31237 37.7282 3.63737 37.8156 4.09368 37.903C4.67803 38.014 5.17373 38.1451 5.57424 38.2897C5.97803 38.4342 6.32601 38.6729 6.62146 39.0024C6.91692 39.3319 7.06464 39.7824 7.06464 40.3506C7.06464 40.8449 6.93005 41.292 6.65757 41.6921C6.38838 42.0922 5.98131 42.4116 5.44621 42.647C4.90783 42.8823 4.25454 43 3.48636 43C2.84949 43 2.22904 42.926 1.625 42.7815L1.62828 42.7882Z" fill="white"/>
<path d="M7.91818 35.8185C7.64242 35.5764 7.50783 35.2671 7.50783 34.8905C7.50783 34.514 7.64571 34.208 7.91818 33.9626C8.19394 33.7205 8.55176 33.5961 8.99823 33.5961C9.44469 33.5961 9.81565 33.7138 10.0848 33.9458C10.354 34.1778 10.4919 34.477 10.4919 34.8435C10.4919 35.2335 10.3573 35.5529 10.0848 35.805C9.81565 36.0572 9.45126 36.1816 8.99823 36.1816C8.5452 36.1816 8.19066 36.0606 7.91818 35.8151V35.8185ZM7.7606 36.6792H10.2424V42.8285H7.7606V36.6792Z" fill="white"/>
<path d="M12.1694 42.7714C11.6705 42.6604 11.27 42.5125 10.9614 42.3343L11.6409 40.6599C11.92 40.8314 12.2482 40.9659 12.629 41.0634C13.0099 41.1609 13.3775 41.208 13.7386 41.208C14.0242 41.208 14.2245 41.1844 14.3361 41.134C14.451 41.0869 14.5068 41.013 14.5068 40.9155C14.5068 40.818 14.4346 40.7507 14.2934 40.7137C14.1523 40.6768 13.9192 40.6398 13.5975 40.6028C13.1083 40.5423 12.6914 40.4649 12.3467 40.3742C12.002 40.28 11.7 40.0985 11.4407 39.8295C11.1813 39.5605 11.05 39.1739 11.05 38.6729C11.05 38.2762 11.1682 37.9198 11.4013 37.6038C11.6343 37.2877 11.9856 37.0389 12.4485 36.8506C12.9146 36.6624 13.4694 36.5682 14.1227 36.5682C14.5758 36.5682 15.0222 36.6119 15.4556 36.696C15.8922 36.7834 16.2631 36.9078 16.5684 37.0725L15.8889 38.7469C15.3636 38.4477 14.7826 38.2964 14.1556 38.2964C13.6139 38.2964 13.3447 38.3939 13.3447 38.5889C13.3447 38.6864 13.4169 38.757 13.5647 38.7973C13.7124 38.8377 13.9422 38.878 14.2573 38.915C14.7465 38.9755 15.1634 39.0528 15.5015 39.1503C15.8429 39.2478 16.1417 39.4328 16.401 39.7017C16.6604 39.9707 16.7917 40.3573 16.7917 40.8583C16.7917 41.2416 16.6735 41.5879 16.4404 41.9039C16.2073 42.22 15.8561 42.4688 15.3866 42.657C14.9172 42.8453 14.3525 42.9395 13.6861 42.9395C13.174 42.9395 12.6684 42.8823 12.1727 42.7714H12.1694Z" fill="white"/>
<path d="M21.9588 42.6134C21.5846 42.8319 21.0758 42.9395 20.4323 42.9395C19.5919 42.9395 18.9419 42.731 18.4889 42.3141C18.0359 41.8972 17.8093 41.2752 17.8093 40.4414V38.868H16.9854V37.0121H17.8093V35.294H20.2912V37.0121H21.5189V38.868H20.2912V40.4179C20.2912 40.6062 20.3371 40.7507 20.4323 40.855C20.5275 40.9592 20.6523 41.013 20.8066 41.013C21.0199 41.013 21.2038 40.9558 21.3679 40.8449L21.9621 42.61L21.9588 42.6134Z" fill="white"/>
<path d="M28.9381 40.3439H24.7689C24.8576 40.5759 25.002 40.7541 25.2088 40.8785C25.4124 41.0029 25.6684 41.0634 25.977 41.0634C26.2396 41.0634 26.4629 41.0298 26.6402 40.9625C26.8207 40.8953 27.0144 40.7776 27.2278 40.6129L28.5212 41.951C27.9369 42.61 27.0604 42.9395 25.8982 42.9395C25.1727 42.9395 24.5359 42.8016 23.9876 42.5293C23.4394 42.257 23.0159 41.877 22.7139 41.3895C22.4152 40.902 22.2641 40.354 22.2641 39.7488C22.2641 39.1436 22.4119 38.5855 22.7073 38.1014C23.0028 37.6172 23.4098 37.2407 23.9253 36.9717C24.4407 36.7027 25.0217 36.5682 25.6652 36.5682C26.2725 36.5682 26.8273 36.6926 27.3263 36.9381C27.8285 37.1869 28.2258 37.55 28.5212 38.0274C28.8167 38.5082 28.9644 39.0797 28.9644 39.7488C28.9644 39.7858 28.9545 39.9842 28.9316 40.3439H28.9381ZM25.0545 38.5115C24.8871 38.6527 24.7755 38.8578 24.7263 39.1201H26.6566C26.604 38.8646 26.4957 38.6662 26.3283 38.5183C26.1609 38.3737 25.9475 38.2997 25.6914 38.2997C25.4354 38.2997 25.222 38.3703 25.0545 38.5115Z" fill="white"/>
<path d="M39.4366 37.2507C39.8732 37.708 40.0899 38.3972 40.0899 39.3184V42.8251H37.6114V39.7555C37.6114 39.0528 37.3881 38.6998 36.9417 38.6998C36.7086 38.6998 36.5182 38.7906 36.377 38.9688C36.2359 39.147 36.1636 39.4328 36.1636 39.8228V42.8251H33.6818V39.7555C33.6818 39.0528 33.4586 38.6998 33.0121 38.6998C32.779 38.6998 32.5886 38.7906 32.4475 38.9688C32.3063 39.147 32.2341 39.4328 32.2341 39.8228V42.8251H29.7523V36.6758H32.1126V37.2474C32.5591 36.7901 33.127 36.5615 33.8131 36.5615C34.2169 36.5615 34.578 36.6388 34.8997 36.7935C35.2215 36.9481 35.4841 37.1801 35.6909 37.4962C35.9338 37.1969 36.226 36.965 36.5674 36.8036C36.9121 36.6422 37.2864 36.5615 37.6967 36.5615C38.4222 36.5615 39 36.7901 39.4366 37.2474V37.2507Z" fill="white"/>
<path d="M46.2682 37.2911C46.823 37.7752 47.102 38.5183 47.102 39.5235V42.8285H44.7975V42.0182C44.5119 42.6335 43.9439 42.9395 43.097 42.9395C42.621 42.9395 42.2172 42.8554 41.8856 42.6873C41.554 42.5192 41.3013 42.2906 41.1273 42.0014C40.9566 41.7123 40.8679 41.3895 40.8679 41.0298C40.8679 40.4246 41.0944 39.9606 41.5475 39.6479C42.0005 39.3319 42.6899 39.1772 43.6091 39.1772H44.6071C44.525 38.6965 44.1508 38.4577 43.4778 38.4577C43.2086 38.4577 42.9328 38.5014 42.6538 38.5855C42.3747 38.6729 42.1384 38.7906 41.9414 38.9385L41.1502 37.2642C41.4949 37.0456 41.9086 36.8775 42.3944 36.7531C42.8803 36.6287 43.3662 36.5682 43.8487 36.5682C44.9025 36.5682 45.7068 36.8103 46.2616 37.2944L46.2682 37.2911ZM44.3149 41.2651C44.4528 41.1676 44.5578 41.0231 44.6235 40.828V40.4011H44.0096C43.504 40.4011 43.2513 40.5725 43.2513 40.9188C43.2513 41.06 43.3038 41.1777 43.4088 41.2719C43.5139 41.366 43.6583 41.4131 43.8422 41.4131C44.026 41.4131 44.1737 41.366 44.3149 41.2685V41.2651Z" fill="white"/>
<path d="M58.1093 34.4871V42.8252H55.749V42.3209C55.3912 42.7344 54.8429 42.9395 54.1043 42.9395C53.579 42.9395 53.0932 42.8117 52.65 42.5528C52.2068 42.294 51.8555 41.9208 51.5962 41.4332C51.3369 40.9457 51.2056 40.3843 51.2056 39.7488C51.2056 39.1134 51.3369 38.5519 51.5962 38.0678C51.8555 37.5836 52.2068 37.2138 52.65 36.9549C53.0932 36.696 53.5758 36.5682 54.1043 36.5682C54.7707 36.5682 55.2795 36.7431 55.6308 37.0961V34.4871H58.1093ZM55.3977 40.6398C55.5816 40.428 55.6735 40.1287 55.6735 39.7455C55.6735 39.3622 55.5816 39.0663 55.3977 38.8579C55.2139 38.6494 54.9808 38.5418 54.6952 38.5418C54.4096 38.5418 54.1765 38.646 53.9927 38.8579C53.8088 39.0663 53.7169 39.3622 53.7169 39.7455C53.7169 40.1287 53.8088 40.4246 53.9927 40.6398C54.1765 40.855 54.4096 40.9592 54.6952 40.9592C54.9808 40.9592 55.2139 40.8516 55.3977 40.6398Z" fill="white"/>
<path d="M65.5614 40.3439H61.3922C61.4808 40.5759 61.6253 40.7541 61.8321 40.8785C62.0356 41.0029 62.2917 41.0634 62.6003 41.0634C62.8629 41.0634 63.0861 41.0298 63.2634 40.9625C63.4439 40.8953 63.6376 40.7776 63.851 40.6129L65.1477 41.951C64.5634 42.61 63.6869 42.9395 62.5247 42.9395C61.7992 42.9395 61.1624 42.8016 60.6141 42.5293C60.0659 42.257 59.6424 41.877 59.3404 41.3895C59.0417 40.902 58.8907 40.354 58.8907 39.7488C58.8907 39.1436 59.0384 38.5855 59.3338 38.1014C59.6293 37.6172 60.0364 37.2407 60.5518 36.9717C61.0672 36.7027 61.6482 36.5682 62.2917 36.5682C62.899 36.5682 63.4538 36.6926 63.9528 36.9381C64.455 37.1869 64.8523 37.55 65.1477 38.0274C65.4432 38.5082 65.5909 39.0797 65.5909 39.7488C65.5909 39.7858 65.5811 39.9842 65.5581 40.3439H65.5614ZM61.6778 38.5115C61.5104 38.6527 61.3987 38.8578 61.3495 39.1201H63.2798C63.2273 38.8646 63.1189 38.6662 62.9515 38.5183C62.7841 38.3737 62.5707 38.2997 62.3147 38.2997C62.0586 38.2997 61.8452 38.3703 61.6778 38.5115Z" fill="white"/>
<path d="M72.0581 41.4568L71.5427 42.8285H68.9098L72.2682 34.9612H74.8157L78.174 42.8285H75.4952L74.9798 41.4568H72.0581ZM74.2641 39.5471L73.5189 37.5702L72.7737 39.5471H74.2674H74.2641Z" fill="white"/>
<path d="M79.346 42.7714C78.847 42.6604 78.4465 42.5125 78.1379 42.3343L78.8174 40.6599C79.0965 40.8314 79.4247 40.9659 79.8056 41.0634C80.1864 41.1609 80.554 41.208 80.9151 41.208C81.2007 41.208 81.401 41.1844 81.5126 41.134C81.6275 41.0869 81.6833 41.013 81.6833 40.9155C81.6833 40.818 81.6111 40.7507 81.47 40.7137C81.3288 40.6768 81.0957 40.6398 80.774 40.6028C80.2848 40.5423 79.8679 40.4649 79.5232 40.3742C79.1785 40.28 78.8765 40.0985 78.6172 39.8295C78.3578 39.5605 78.2265 39.1739 78.2265 38.6729C78.2265 38.2762 78.3447 37.9198 78.5778 37.6038C78.8109 37.2877 79.1621 37.0389 79.625 36.8506C80.0911 36.6624 80.6459 36.5682 81.2992 36.5682C81.7523 36.5682 82.1987 36.6119 82.6321 36.696C83.0687 36.7834 83.4396 36.9078 83.745 37.0725L83.0654 38.7469C82.5401 38.4477 81.9591 38.2964 81.3321 38.2964C80.7904 38.2964 80.5212 38.3939 80.5212 38.5889C80.5212 38.6864 80.5934 38.757 80.7412 38.7973C80.8889 38.8377 81.1187 38.878 81.4338 38.915C81.923 38.9755 82.3399 39.0528 82.678 39.1503C83.0194 39.2478 83.3182 39.4328 83.5775 39.7017C83.8369 39.9707 83.9682 40.3573 83.9682 40.8583C83.9682 41.2416 83.85 41.5879 83.6169 41.9039C83.3838 42.22 83.0326 42.4688 82.5631 42.657C82.0937 42.8453 81.529 42.9395 80.8626 42.9395C80.3505 42.9395 79.8449 42.8823 79.3492 42.7714H79.346Z" fill="white"/>
<path d="M84.871 35.8185C84.5952 35.5764 84.4606 35.2671 84.4606 34.8905C84.4606 34.514 84.5985 34.208 84.871 33.9626C85.1467 33.7205 85.5045 33.5961 85.951 33.5961C86.3975 33.5961 86.7684 33.7138 87.0376 33.9458C87.3068 34.1778 87.4447 34.477 87.4447 34.8435C87.4447 35.2335 87.3101 35.5529 87.0376 35.805C86.7684 36.0572 86.404 36.1816 85.951 36.1816C85.498 36.1816 85.1434 36.0606 84.871 35.8151V35.8185ZM84.7134 36.6792H87.1952V42.8285H84.7134V36.6792Z" fill="white"/>
<path d="M89.1222 42.7714C88.6232 42.6604 88.2227 42.5125 87.9141 42.3343L88.5937 40.6599C88.8727 40.8314 89.201 40.9659 89.5818 41.0634C89.9626 41.1609 90.3303 41.208 90.6914 41.208C90.977 41.208 91.1773 41.1844 91.2889 41.134C91.4038 41.0869 91.4596 41.013 91.4596 40.9155C91.4596 40.818 91.3874 40.7507 91.2462 40.7137C91.105 40.6768 90.872 40.6398 90.5502 40.6028C90.0611 40.5423 89.6442 40.4649 89.2995 40.3742C88.9548 40.28 88.6528 40.0985 88.3934 39.8295C88.1341 39.5605 88.0028 39.1739 88.0028 38.6729C88.0028 38.2762 88.121 37.9198 88.354 37.6038C88.5871 37.2877 88.9384 37.0389 89.4013 36.8506C89.8674 36.6624 90.4222 36.5682 91.0755 36.5682C91.5285 36.5682 91.975 36.6119 92.4083 36.696C92.8449 36.7834 93.2159 36.9078 93.5212 37.0725L92.8416 38.7469C92.3164 38.4477 91.7353 38.2964 91.1083 38.2964C90.5667 38.2964 90.2975 38.3939 90.2975 38.5889C90.2975 38.6864 90.3697 38.757 90.5174 38.7973C90.6651 38.8377 90.8949 38.878 91.2101 38.915C91.6992 38.9755 92.1162 39.0528 92.4543 39.1503C92.7957 39.2478 93.0944 39.4328 93.3538 39.7017C93.6131 39.9707 93.7444 40.3573 93.7444 40.8583C93.7444 41.2416 93.6263 41.5879 93.3932 41.9039C93.1601 42.22 92.8088 42.4688 92.3394 42.657C91.8699 42.8453 91.3053 42.9395 90.6389 42.9395C90.1268 42.9395 89.6212 42.8823 89.1255 42.7714H89.1222Z" fill="white"/>
<path d="M98.9116 42.6134C98.5374 42.8319 98.0285 42.9395 97.3851 42.9395C96.5447 42.9395 95.8947 42.731 95.4417 42.3141C94.9886 41.8972 94.7621 41.2752 94.7621 40.4414V38.868H93.9381V37.0121H94.7621V35.294H97.2439V37.0121H98.4717V38.868H97.2439V40.4179C97.2439 40.6062 97.2899 40.7507 97.3851 40.855C97.4803 40.9592 97.6051 41.013 97.7593 41.013C97.9727 41.013 98.1566 40.9558 98.3207 40.8449L98.9149 42.61L98.9116 42.6134Z" fill="white"/>
<path d="M105.891 40.3439H101.722C101.81 40.5759 101.955 40.7541 102.162 40.8785C102.365 41.0029 102.621 41.0634 102.93 41.0634C103.192 41.0634 103.416 41.0298 103.593 40.9625C103.773 40.8953 103.967 40.7776 104.181 40.6129L105.474 41.951C104.89 42.61 104.013 42.9395 102.851 42.9395C102.125 42.9395 101.489 42.8016 100.94 42.5293C100.392 42.257 99.9687 41.877 99.6667 41.3895C99.3679 40.902 99.2169 40.354 99.2169 39.7488C99.2169 39.1436 99.3646 38.5855 99.6601 38.1014C99.9555 37.6172 100.363 37.2407 100.878 36.9717C101.393 36.7027 101.974 36.5682 102.618 36.5682C103.225 36.5682 103.78 36.6926 104.279 36.9381C104.781 37.1869 105.179 37.55 105.474 38.0274C105.769 38.5082 105.917 39.0797 105.917 39.7488C105.917 39.7858 105.907 39.9842 105.884 40.3439H105.891ZM102.007 38.5115C101.84 38.6527 101.728 38.8578 101.679 39.1201H103.609C103.557 38.8646 103.448 38.6662 103.281 38.5183C103.114 38.3737 102.9 38.2997 102.644 38.2997C102.388 38.2997 102.175 38.3703 102.007 38.5115Z" fill="white"/>
<path d="M112.657 37.2507C113.107 37.708 113.333 38.3972 113.333 39.3184V42.8251H110.855V39.7555C110.855 39.0528 110.608 38.6998 110.119 38.6998C109.84 38.6998 109.617 38.8007 109.443 38.999C109.272 39.1974 109.184 39.5101 109.184 39.9371V42.8251H106.702V36.6758H109.062V37.281C109.295 37.0423 109.568 36.8607 109.873 36.743C110.182 36.622 110.513 36.5615 110.871 36.5615C111.61 36.5615 112.204 36.7901 112.654 37.2474L112.657 37.2507Z" fill="white"/>
<path d="M115.805 42.536C115.267 42.267 114.846 41.8871 114.544 41.3996C114.242 40.9121 114.088 40.3607 114.088 39.7488C114.088 39.1369 114.239 38.5855 114.544 38.1014C114.85 37.6172 115.27 37.2407 115.805 36.9717C116.343 36.7027 116.951 36.5682 117.634 36.5682C118.366 36.5682 118.989 36.7296 119.511 37.0524C120.03 37.3751 120.388 37.8223 120.588 38.3905L118.668 39.3588C118.435 38.8209 118.087 38.5485 117.624 38.5485C117.332 38.5485 117.089 38.6527 116.895 38.8646C116.701 39.073 116.603 39.3689 116.603 39.7522C116.603 40.1354 116.701 40.4414 116.895 40.6499C117.089 40.8583 117.332 40.9659 117.624 40.9659C118.083 40.9659 118.431 40.6969 118.668 40.1556L120.588 41.1239C120.391 41.6921 120.033 42.1393 119.511 42.462C118.989 42.7848 118.366 42.9462 117.634 42.9462C116.954 42.9462 116.343 42.8117 115.805 42.5427V42.536Z" fill="white"/>
<path d="M121.317 35.8185C121.041 35.5764 120.907 35.2671 120.907 34.8905C120.907 34.514 121.044 34.208 121.317 33.9626C121.593 33.7205 121.951 33.5961 122.397 33.5961C122.843 33.5961 123.211 33.7138 123.484 33.9458C123.753 34.1778 123.891 34.477 123.891 34.8435C123.891 35.2335 123.756 35.5529 123.484 35.805C123.211 36.0572 122.85 36.1816 122.397 36.1816C121.944 36.1816 121.589 36.0606 121.317 35.8151V35.8185ZM121.156 36.6792H123.638V42.8285H121.156V36.6792Z" fill="white"/>
<path d="M129.836 37.2911C130.391 37.7752 130.67 38.5183 130.67 39.5235V42.8285H128.365V42.0182C128.08 42.6335 127.512 42.9395 126.665 42.9395C126.189 42.9395 125.785 42.8554 125.453 42.6873C125.122 42.5192 124.869 42.2906 124.695 42.0014C124.524 41.7123 124.436 41.3895 124.436 41.0298C124.436 40.4246 124.662 39.9606 125.115 39.6479C125.568 39.3319 126.258 39.1772 127.18 39.1772H128.178C128.096 38.6965 127.722 38.4577 127.049 38.4577C126.776 38.4577 126.504 38.5014 126.225 38.5855C125.946 38.6729 125.709 38.7906 125.512 38.9385L124.721 37.2642C125.066 37.0456 125.48 36.8775 125.965 36.7531C126.451 36.6287 126.937 36.5682 127.42 36.5682C128.473 36.5682 129.278 36.8103 129.833 37.2944L129.836 37.2911ZM127.883 41.2651C128.02 41.1676 128.125 41.0231 128.191 40.828V40.4011H127.577C127.072 40.4011 126.819 40.5725 126.819 40.9188C126.819 41.06 126.871 41.1777 126.976 41.2719C127.082 41.366 127.226 41.4131 127.41 41.4131C127.594 41.4131 127.741 41.366 127.883 41.2685V41.2651Z" fill="white"/>
<path d="M141.976 42.8285L141.953 39.2445L140.285 42.1225H139.143L137.475 39.3689V42.8319H135.115V34.9645H137.245L139.747 39.1571L142.183 34.9645H144.313L144.336 42.8319H141.976V42.8285Z" fill="white"/>
<path d="M151.864 40.3439H147.694C147.783 40.5759 147.928 40.7541 148.134 40.8785C148.338 41.0029 148.594 41.0634 148.903 41.0634C149.165 41.0634 149.388 41.0298 149.566 40.9625C149.743 40.8953 149.94 40.7776 150.153 40.6129L151.447 41.951C150.862 42.61 149.986 42.9395 148.824 42.9395C148.098 42.9395 147.465 42.8016 146.913 42.5293C146.365 42.2569 145.941 41.877 145.639 41.3895C145.341 40.902 145.19 40.354 145.19 39.7488C145.19 39.1436 145.337 38.5855 145.633 38.1013C145.928 37.6172 146.335 37.2406 146.851 36.9717C147.366 36.7027 147.947 36.5682 148.591 36.5682C149.198 36.5682 149.753 36.6926 150.252 36.9381C150.754 37.1869 151.151 37.55 151.447 38.0274C151.742 38.5082 151.89 39.0797 151.89 39.7488C151.89 39.7858 151.88 39.9841 151.857 40.3439H151.864ZM148.847 34.208H151.207L149.047 36.0067H147.399L148.847 34.208ZM147.98 38.5115C147.813 38.6527 147.701 38.8578 147.652 39.1201H149.582C149.53 38.8646 149.421 38.6662 149.254 38.5183C149.086 38.3737 148.873 38.2997 148.617 38.2997C148.361 38.2997 148.147 38.3703 147.98 38.5115Z" fill="white"/>
<path d="M159.312 34.4871C159.312 37.7433 159.312 39.5689 159.312 42.8252H156.952V42.3209C156.594 42.7344 156.046 42.9395 155.307 42.9395C154.779 42.9395 154.296 42.8117 153.853 42.5528C153.41 42.294 153.059 41.9208 152.799 41.4332C152.54 40.9457 152.409 40.3843 152.409 39.7488C152.409 39.1134 152.54 38.5519 152.799 38.0678C153.059 37.5836 153.41 37.2138 153.853 36.9549C154.296 36.696 154.779 36.5682 155.307 36.5682C155.974 36.5682 156.483 36.7431 156.834 37.0961V34.4871H159.312ZM156.601 40.6398C156.785 40.428 156.876 40.1287 156.876 39.7455C156.876 39.3622 156.785 39.0663 156.601 38.8579C156.417 38.6494 156.184 38.5418 155.898 38.5418C155.613 38.5418 155.38 38.646 155.196 38.8579C155.012 39.0663 154.92 39.3622 154.92 39.7455C154.92 40.1287 155.012 40.4246 155.196 40.6398C155.38 40.855 155.613 40.9592 155.898 40.9592C156.184 40.9592 156.417 40.8516 156.601 40.6398Z" fill="white"/>
<path d="M160.57 35.8185C160.294 35.5764 160.159 35.2671 160.159 34.8905C160.159 34.514 160.297 34.208 160.57 33.9626C160.845 33.7205 161.203 33.5961 161.65 33.5961C162.096 33.5961 162.464 33.7138 162.736 33.9458C163.006 34.1778 163.143 34.477 163.143 34.8435C163.143 35.2335 163.009 35.5529 162.736 35.805C162.464 36.0572 162.103 36.1816 161.65 36.1816C161.197 36.1816 160.842 36.0606 160.57 35.8151V35.8185ZM160.412 36.6792H162.891V42.8285H160.412V36.6792Z" fill="white"/>
<path d="M165.389 42.536C164.851 42.267 164.43 41.8871 164.128 41.3996C163.826 40.9121 163.672 40.3607 163.672 39.7488C163.672 39.1369 163.823 38.5855 164.128 38.1014C164.434 37.6172 164.854 37.2407 165.389 36.9717C165.927 36.7027 166.535 36.5682 167.217 36.5682C167.95 36.5682 168.573 36.7296 169.095 37.0524C169.614 37.3751 169.972 37.8223 170.172 38.3905L168.252 39.3588C168.018 38.8209 167.67 38.5485 167.208 38.5485C166.915 38.5485 166.672 38.6527 166.479 38.8646C166.285 39.073 166.187 39.3689 166.187 39.7522C166.187 40.1354 166.285 40.4414 166.479 40.6499C166.672 40.8583 166.915 40.9659 167.208 40.9659C167.667 40.9659 168.015 40.6969 168.252 40.1556L170.172 41.1239C169.975 41.6921 169.614 42.1393 169.095 42.462C168.577 42.7848 167.95 42.9462 167.217 42.9462C166.538 42.9462 165.927 42.8117 165.389 42.5427V42.536Z" fill="white"/>
<path d="M175.841 37.2911C176.396 37.7752 176.675 38.5183 176.675 39.5235V42.8285H174.371V42.0182C174.085 42.6335 173.517 42.9395 172.67 42.9395C172.194 42.9395 171.79 42.8554 171.459 42.6873C171.124 42.5192 170.874 42.2906 170.7 42.0014C170.53 41.7123 170.441 41.3895 170.441 41.0298C170.441 40.4246 170.668 39.9606 171.121 39.6479C171.574 39.3319 172.263 39.1772 173.186 39.1772H174.184C174.101 38.6965 173.727 38.4577 173.054 38.4577C172.785 38.4577 172.509 38.5014 172.23 38.5855C171.951 38.6729 171.715 38.7906 171.518 38.9385L170.727 37.2642C171.071 37.0456 171.485 36.8775 171.971 36.7531C172.457 36.6287 172.943 36.5682 173.425 36.5682C174.479 36.5682 175.283 36.8103 175.838 37.2944L175.841 37.2911ZM173.888 41.2651C174.026 41.1676 174.131 41.0231 174.197 40.828V40.4011H173.583C173.077 40.4011 172.824 40.5725 172.824 40.9188C172.824 41.06 172.877 41.1777 172.985 41.2719C173.09 41.366 173.235 41.4131 173.419 41.4131C173.602 41.4131 173.75 41.366 173.891 41.2685L173.888 41.2651Z" fill="white"/>
<path d="M189.327 34.9578L186.077 42.8252H183.533L180.283 34.9578H183.07L184.902 39.5538L186.78 34.9578H189.327Z" fill="white"/>
<path d="M189.83 35.8185C189.554 35.5764 189.419 35.2671 189.419 34.8905C189.419 34.514 189.557 34.208 189.83 33.9626C190.105 33.7205 190.463 33.5961 190.91 33.5961C191.356 33.5961 191.724 33.7138 191.996 33.9458C192.265 34.1778 192.403 34.477 192.403 34.8435C192.403 35.2335 192.269 35.5529 191.996 35.805C191.727 36.0572 191.363 36.1816 190.91 36.1816C190.457 36.1816 190.102 36.0606 189.83 35.8151V35.8185ZM189.669 36.6792H192.15V42.8285H189.669V36.6792Z" fill="white"/>
<path d="M197.547 36.5682V38.8175C197.35 38.7872 197.167 38.7738 196.999 38.7738C196.149 38.7738 195.725 39.2176 195.725 40.0985V42.8285H193.247V36.6792H195.607V37.3415C196.047 36.8237 196.694 36.5649 197.551 36.5649L197.547 36.5682Z" fill="white"/>
<path d="M202.672 42.6134C202.298 42.8319 201.789 42.9395 201.145 42.9395C200.305 42.9395 199.655 42.731 199.202 42.3141C198.749 41.8972 198.522 41.2752 198.522 40.4414V38.868H197.698V37.0121H198.522V35.294H201.001V37.0121H202.229V38.868H201.001V40.4179C201.001 40.6062 201.047 40.7507 201.145 40.855C201.241 40.9592 201.365 41.013 201.52 41.013C201.733 41.013 201.917 40.9558 202.078 40.8449L202.672 42.61V42.6134Z" fill="white"/>
<path d="M209.861 42.8285H207.501V42.2435C207.281 42.4755 207.025 42.6503 206.733 42.7647C206.441 42.8823 206.129 42.9395 205.8 42.9395C205.039 42.9395 204.428 42.7008 203.969 42.2267C203.509 41.7493 203.276 41.0332 203.276 40.075V36.6792H205.755V39.6345C205.755 40.0548 205.82 40.354 205.951 40.5322C206.083 40.7138 206.276 40.8012 206.533 40.8012C206.775 40.8012 206.976 40.7003 207.137 40.5019C207.297 40.3036 207.38 39.9909 207.38 39.5639V36.6758H209.861V42.8285Z" fill="white"/>
<path d="M216.063 37.2911C216.617 37.7752 216.896 38.5183 216.896 39.5235V42.8285H214.592V42.0182C214.306 42.6335 213.738 42.9395 212.891 42.9395C212.415 42.9395 212.012 42.8554 211.68 42.6873C211.348 42.5192 211.096 42.2906 210.922 42.0014C210.751 41.7123 210.662 41.3895 210.662 41.0298C210.662 40.4246 210.889 39.9606 211.342 39.6479C211.795 39.3319 212.484 39.1772 213.407 39.1772H214.405C214.323 38.6965 213.948 38.4577 213.275 38.4577C213.003 38.4577 212.731 38.5014 212.451 38.5855C212.172 38.6729 211.936 38.7906 211.739 38.9385L210.948 37.2642C211.293 37.0456 211.706 36.8775 212.192 36.7531C212.678 36.6287 213.164 36.5682 213.646 36.5682C214.7 36.5682 215.504 36.8103 216.059 37.2944L216.063 37.2911ZM214.109 41.2651C214.247 41.1676 214.349 41.0231 214.418 40.828V40.4011H213.804C213.298 40.4011 213.046 40.5725 213.046 40.9188C213.046 41.06 213.098 41.1777 213.207 41.2719C213.312 41.366 213.456 41.4131 213.64 41.4131C213.824 41.4131 213.971 41.366 214.113 41.2685L214.109 41.2651Z" fill="white"/>
<path d="M217.97 34.4871H220.452V42.8252H217.97V34.4871Z" fill="white"/>
</svg>
